<svg xmlns="http://www.w3.org/2000/svg" viewBox="0 0 24 24"><defs><style>.cls-1{fill:none;stroke:#2188d9;stroke-linejoin:round;stroke-width:2px;}.cls-2{fill:#2188d9;}</style></defs><title>ZenduMaintenance</title><g id="ZenduMaintenance"><polyline class="cls-1" points="8 9 15 9 9 16 16 16"/><path class="cls-2" d="M23,13l-.33,1.93-2.41.3-.77,1.55,1.31,2-1.38,1.51-2.17-1.06L16,20l.05,2.4L14,23l-1.25-2.07H11.28L10,23l-2-.58L8.05,20l-1.3-.79L4.58,20.29,3.2,18.78l1.31-2-.77-1.55-2.41-.3L1,13l2.16-.94L3.28,11l.11-.89L1.53,8.57l.73-1.72,2.34.39L5.93,5.65l-.72-2.3,1.5-1L8.47,4l2-.61L11.11,1h1.78l.62,2.32,2,.61,1.76-1.61,1.5,1-.72,2.3L19.4,7.24l2.34-.39.73,1.72-1.86,1.56.23,1.94ZM12,20a8,8,0,1,0-8-8A8,8,0,0,0,12,20Z"/><polygon class="cls-1" points="22.67 14.94 23 13.01 20.84 12.07 20.61 10.13 22.47 8.57 21.74 6.85 19.4 7.24 18.07 5.65 18.79 3.35 17.29 2.35 15.53 3.96 13.51 3.35 12.89 1.03 11.11 1.03 10.49 3.35 8.47 3.96 6.71 2.35 5.21 3.35 5.93 5.65 4.6 7.24 2.26 6.85 1.53 8.57 3.39 10.13 3.28 11.02 3.16 12.07 1 13.01 1.33 14.94 3.74 15.24 4.51 16.79 3.2 18.78 4.58 20.29 6.75 19.23 8.05 20.02 8 22.42 10.03 23 11.28 20.93 12.72 20.93 13.97 23 16 22.42 15.95 20.02 17.25 19.23 19.42 20.29 20.8 18.78 19.49 16.79 20.26 15.24 22.67 14.94"/><circle class="cls-1" cx="12" cy="12" r="8"/></g></svg>
